<svg width="251" height="305" viewBox="0 0 251 305" fill="none" xmlns="http://www.w3.org/2000/svg">
<path d="M13.7379 112.119C-12.0471 156.864 4.34489 224.767 32.8589 265.939C47.0919 286.523 61.5019 305 81.2389 305C81.6109 305 81.9839 304.993 82.3659 304.978C91.6389 304.608 98.3399 301.753 104.819 298.994C112.093 295.894 119.616 292.689 131.416 292.689C142.642 292.689 149.806 295.79 156.734 298.788C163.562 301.742 170.595 304.798 180.987 304.603C203.219 304.189 216.869 284.251 228.912 266.662C241.479 248.297 247.783 230.466 249.91 223.652L249.996 223.381C250.401 222.17 249.829 220.848 248.668 220.315C248.636 220.3 248.518 220.251 248.485 220.237C244.57 218.636 210.228 203.401 209.867 161.877C209.532 128.141 235.63 110.276 240.864 107.038L241.108 106.886C241.675 106.521 242.07 105.942 242.204 105.28C242.338 104.619 242.198 103.931 241.818 103.375C223.804 77.0128 196.194 73.0398 185.078 72.5618C183.465 72.4008 181.8 72.3198 180.128 72.3198C167.072 72.3198 154.565 77.2508 144.517 81.2128C137.581 83.9478 131.59 86.3098 127.458 86.3098C122.815 86.3098 116.79 83.9188 109.813 81.1508C100.483 77.4478 89.9079 73.2518 78.7129 73.2518C78.4459 73.2518 78.1829 73.2548 77.9239 73.2598C51.8939 73.6428 27.2979 88.5348 13.7379 112.119Z" fill="white"/>
<path d="M185.101 0.00192143C169.338 0.643921 150.429 10.3469 139.127 23.5849C129.522 34.7119 120.139 53.2639 122.611 71.9639C122.766 73.1339 123.718 74.0369 124.895 74.1279C125.959 74.2109 127.045 74.2529 128.127 74.2539C143.54 74.2539 160.167 65.7269 171.522 51.9969C183.473 37.4989 189.516 18.8929 187.688 2.22692C187.544 0.920921 186.395 -0.0490786 185.101 0.00192143Z" fill="white"/>
</svg>
