<svg width="292" height="292" viewBox="0 0 292 292" fill="none" xmlns="http://www.w3.org/2000/svg">
<path fill-rule="evenodd" clip-rule="evenodd" d="M291.319 145.66C291.319 65.2192 226.109 0 145.659 0C65.21 0 0 65.2192 0 145.66C0 226.109 65.209 291.319 145.659 291.319C226.109 291.319 291.319 226.11 291.319 145.66ZM147.1 130.862V162.179V162.263H193.485C191.296 175.479 179.426 197.788 147.184 197.788C119.319 197.788 96.5894 174.638 96.5894 146.268C96.5894 117.898 119.319 94.7476 147.184 94.7476C162.926 94.7476 173.533 101.482 179.594 107.207L203.502 83.9722C188.939 70.334 169.913 62 147.184 62C100.714 62 63 99.7144 63 146.184C63 192.653 100.714 230.367 147.184 230.367C195.758 230.367 228 196.189 228 148.12C228 141.133 227.074 136.166 225.896 130.862H147.1Z" fill="white"/>
</svg>
