<svg width="494" height="481" viewBox="0 0 494 481" fill="none" xmlns="http://www.w3.org/2000/svg">
<g clip-path="url(#clip0_402_2)">
<path d="M314.737 107.789H288.481V331.635C288.481 335.147 287.79 338.625 286.445 341.87C285.101 345.114 283.131 348.062 280.648 350.546C278.165 353.029 275.216 354.999 271.972 356.343C268.727 357.687 265.249 358.379 261.737 358.379H61V358.635C61 362.147 61.6917 365.625 63.0357 368.87C64.3797 372.114 66.3497 375.062 68.8331 377.546C71.3165 380.029 74.2648 381.999 77.5096 383.343C80.7543 384.687 84.232 385.379 87.7441 385.379H314.737C318.249 385.379 321.727 384.687 324.972 383.343C328.216 381.999 331.165 380.029 333.648 377.546C336.131 375.062 338.101 372.114 339.445 368.87C340.789 365.625 341.481 362.147 341.481 358.635V134.533C341.481 127.44 338.664 120.637 333.648 115.622C328.633 110.606 321.83 107.789 314.737 107.789V107.789Z" fill="#667077"/>
<path d="M240.724 77.3395C241.382 78.3363 242.249 79.1782 243.264 79.8072C244.28 80.4361 245.419 80.837 246.605 80.9821C247.79 81.1272 248.993 81.013 250.13 80.6476C251.267 80.2821 252.311 79.6739 253.19 78.8653L290.655 95.768L297.878 86.5547L253.234 66.8044C251.763 65.4263 249.837 64.6357 247.822 64.5825C245.806 64.5292 243.842 65.2171 242.3 66.5157C240.758 67.8143 239.746 69.6334 239.456 71.6283C239.165 73.6232 239.617 75.6552 240.724 77.3395H240.724Z" fill="#A0616A"/>
<path d="M401.508 87.8791L405.224 108.935C405.397 109.918 405.363 110.925 405.124 111.894C404.885 112.862 404.446 113.77 403.835 114.559C403.224 115.348 402.456 116 401.578 116.474C400.7 116.948 399.733 117.233 398.739 117.311L335.6 122.277L261.383 89.0611L270.247 72.2339L334.674 92.636L401.508 87.8791Z" fill="#43657D"/>
<path d="M253.737 72.7886H26.7441C11.9737 72.7886 0 84.7623 0 99.5327V323.635C0 338.405 11.9737 350.379 26.7441 350.379H253.737C268.508 350.379 280.481 338.405 280.481 323.635V99.5327C280.481 84.7623 268.508 72.7886 253.737 72.7886Z" fill="#F2F2F2"/>
<path d="M26.7441 78.2886C23.9543 78.2886 21.1918 78.8381 18.6143 79.9057C16.0369 80.9733 13.695 82.5381 11.7223 84.5108C9.74956 86.4835 8.18471 88.8255 7.1171 91.4029C6.04948 93.9804 5.5 96.7429 5.5 99.5327V323.635C5.5 329.27 7.73821 334.673 11.7223 338.657C15.7063 342.641 21.1098 344.879 26.7441 344.879H171.617C185.191 344.879 198.632 342.206 211.172 337.011C223.713 331.817 235.108 324.203 244.706 314.605C254.304 305.006 261.918 293.612 267.113 281.071C272.307 268.53 274.981 255.089 274.981 241.515V99.5327C274.981 96.7429 274.431 93.9804 273.364 91.4029C272.296 88.8255 270.731 86.4835 268.759 84.5108C266.786 82.5381 264.444 80.9733 261.867 79.9057C259.289 78.8381 256.527 78.2886 253.737 78.2886H26.7441Z" fill="white"/>
<path d="M203.696 146.3H76.2894C75.1203 146.3 73.9991 145.836 73.1724 145.009C72.3458 144.182 71.8813 143.061 71.8813 141.892C71.8813 140.723 72.3458 139.602 73.1724 138.775C73.9991 137.948 75.1203 137.484 76.2894 137.484H203.696C204.865 137.484 205.986 137.948 206.813 138.775C207.639 139.602 208.104 140.723 208.104 141.892C208.104 143.061 207.639 144.182 206.813 145.009C205.986 145.836 204.865 146.3 203.696 146.3Z" fill="#736F6F"/>
<path d="M203.696 240.3H76.2894C75.1203 240.3 73.9991 239.836 73.1724 239.009C72.3458 238.182 71.8813 237.061 71.8813 235.892C71.8813 234.723 72.3458 233.602 73.1724 232.775C73.9991 231.948 75.1203 231.484 76.2894 231.484H203.696C204.865 231.484 205.986 231.948 206.813 232.775C207.639 233.602 208.104 234.723 208.104 235.892C208.104 237.061 207.639 238.182 206.813 239.009C205.986 239.836 204.865 240.3 203.696 240.3Z" fill="#736F6F"/>
<path d="M255.433 193.331H24.5523C23.3832 193.331 22.262 192.866 21.4354 192.04C20.6087 191.213 20.1443 190.092 20.1443 188.923C20.1443 187.754 20.6087 186.632 21.4354 185.806C22.262 184.979 23.3832 184.515 24.5523 184.515H255.433C256.602 184.515 257.723 184.979 258.55 185.806C259.376 186.632 259.841 187.754 259.841 188.923C259.841 190.092 259.376 191.213 258.55 192.04C257.723 192.866 256.602 193.331 255.433 193.331V193.331Z" fill="#736F6F"/>
<path d="M393.531 180.687L370.531 229.687L459.008 220.726L440.539 173.687L393.531 180.687Z" fill="#A0616A"/>
<path d="M414.101 462.32L405.712 462.249L401.999 429.138L414.379 429.243L414.101 462.32Z" fill="#A0616A"/>
<path d="M387.231 475.659C387.223 476.654 387.61 477.611 388.307 478.32C389.005 479.029 389.955 479.433 390.949 479.443L407.628 479.582L410.547 473.663L411.62 479.612L417.913 479.669L416.324 458.452L414.134 458.307L405.204 457.691L402.323 457.498L402.272 463.501L388.874 472.589C388.372 472.929 387.96 473.387 387.674 473.921C387.388 474.456 387.236 475.053 387.231 475.659V475.659Z" fill="#2F2E41"/>
<path d="M321.266 462.358L313.268 459.825L319.447 427.085L331.251 430.822L321.266 462.358Z" fill="#A0616A"/>
<path d="M291.663 467.214C291.364 468.162 291.453 469.19 291.911 470.073C292.369 470.956 293.158 471.621 294.106 471.922L310.007 476.956L314.537 472.156L313.814 478.158L319.813 480.061L324.528 459.314L322.478 458.531L314.122 455.319L311.425 454.288L309.613 460.011L294.136 464.761C293.556 464.939 293.028 465.256 292.597 465.683C292.167 466.11 291.846 466.635 291.663 467.214V467.214Z" fill="#2F2E41"/>
<path d="M454.978 206.946L374.531 221.687C374.531 221.687 361.628 231.339 365.08 234.796C368.531 238.252 369.067 237.717 366.799 239.985C364.531 242.252 359.628 245.284 359.58 247.268C359.531 249.252 323.531 338.252 323.531 338.252C323.531 338.252 327.531 336.252 324.531 339.252C321.531 342.252 321.531 344.731 321.531 344.731L307.531 439.252L330.268 440.591L352.531 354.418L402.191 273.914C402.191 273.914 407.118 345.703 407.325 350.478C407.531 355.252 410.531 349.252 407.531 355.252C404.531 361.252 402.531 357.252 404.531 361.252C406.531 365.252 397.327 446.687 397.327 446.687H418.08L462.589 277.896C462.589 277.896 478.425 229.64 454.978 206.946Z" fill="#2F2E41"/>
<path d="M431.28 71.9347L399.055 68.5864L390.706 79.4257L380.98 84.6059C376.864 86.7981 373.466 90.1295 371.194 94.2016C368.921 98.2738 367.87 102.914 368.165 107.568L379.531 173.687C379.531 173.687 369.93 195.306 376.531 200.687C383.132 206.068 371.428 219.394 385.531 212.687C399.635 205.98 460.531 213.687 460.531 213.687L447.531 176.687L457.243 140.33L458.312 109.844C458.511 104.148 456.821 98.5451 453.504 93.9097C450.186 89.2742 445.429 85.8665 439.972 84.2176L438.614 83.8073L431.28 71.9347Z" fill="#43657D"/>
<path d="M475.644 47.2303C475.855 56.3133 472.46 65.1083 467.584 72.8333C466.135 68.3235 463.53 64.219 460.814 60.3064C462.183 68.7706 460.725 77.4502 456.664 85.0019C456.521 85.1043 456.372 85.1994 456.22 85.2868C452.245 87.6778 447.205 88.6463 442.906 86.9194C451.79 77.3427 452.92 61.4755 445.472 50.7337C443.363 47.6857 440.636 44.99 439.33 41.5213C437.267 35.9868 439.25 29.8931 440.5 24.1228C441.67 18.7524 441.874 12.3615 438.271 8.4257C438.656 7.87567 439.181 7.43785 439.79 7.1571C440.4 6.87635 441.073 6.76276 441.742 6.82797C443.963 7.14176 445.58 9.07262 446.61 11.0613C447.64 13.0499 448.319 15.254 449.754 16.9716C452.412 20.1866 456.938 20.9467 460.753 22.6411C469.99 26.7557 475.422 37.1234 475.644 47.2303Z" fill="#2F2E41"/>
<path d="M237.651 479.658C237.65 479.815 237.681 479.97 237.74 480.114C237.8 480.259 237.888 480.39 237.998 480.501C238.109 480.611 238.24 480.699 238.385 480.759C238.53 480.818 238.685 480.849 238.841 480.848H492.131C492.447 480.848 492.749 480.723 492.972 480.5C493.196 480.277 493.321 479.974 493.321 479.658C493.321 479.343 493.196 479.04 492.972 478.817C492.749 478.594 492.447 478.468 492.131 478.468H238.841C238.685 478.468 238.53 478.498 238.385 478.558C238.24 478.618 238.109 478.705 237.998 478.816C237.888 478.926 237.8 479.058 237.741 479.202C237.681 479.347 237.65 479.502 237.651 479.658Z" fill="#40282B"/>
<path d="M477.638 257.748C482.609 257.748 486.638 253.719 486.638 248.748C486.638 243.777 482.609 239.748 477.638 239.748C472.668 239.748 468.638 243.777 468.638 248.748C468.638 253.719 472.668 257.748 477.638 257.748Z" fill="#43657D"/>
<path d="M397.886 42.037C398.414 40.1894 394.776 51.4833 396.531 51.6872C404.528 52.6046 415.505 57.3804 421.075 59.6084C421.326 59.5793 421.576 59.5501 421.82 59.5137C422.417 59.4482 423 59.3536 423.576 59.2444C436.544 56.7906 441.531 36.8692 441.531 36.6872C441.531 35.7917 439.382 11.1942 435.996 10.8302C435.107 10.7337 434.213 10.6851 433.318 10.6846H424.916C423.177 10.3099 421.415 10.0545 419.641 9.9201H419.627C402.711 8.63133 389.374 18.9413 390.62 31.4867C390.628 31.5012 390.643 31.5158 390.65 31.5304C391.011 32.0692 391.329 32.5789 391.609 33.0667C391.882 33.5254 392.111 33.9623 392.31 34.3773C393.851 37.581 389.888 41.6123 392.516 42.3647C396.011 43.3655 383.324 76.2582 397.158 76.2582C390.429 78.1714 396.43 47.1338 397.886 42.037Z" fill="#2F2E41"/>
<path d="M412.986 61.3369C423.973 61.3369 432.88 52.4303 432.88 41.4434C432.88 30.4564 423.973 21.5498 412.986 21.5498C401.999 21.5498 393.093 30.4564 393.093 41.4434C393.093 52.4303 401.999 61.3369 412.986 61.3369Z" fill="#A0616A"/>
<path d="M390.621 32.5715C390.953 32.7463 391.277 32.9064 391.609 33.0666C391.956 33.2341 392.303 33.4016 392.649 33.5544C399.311 36.5761 404.733 36.911 408.023 32.5715C408.111 30.2881 408.624 28.0412 409.535 25.9457C409.374 28.2874 409.991 30.6167 411.291 32.5715H417.915C424.739 37.1003 428.243 37.5736 423.507 52.4416C422.186 56.5846 416.936 80.6923 419.002 84.2674C419.599 84.2018 425.956 57.7964 426.531 57.6872C439.5 55.2335 447.74 33.8675 446.685 32.6589C446.69 29.2218 445.9 25.8301 444.376 22.7493C442.448 18.8461 439.443 15.5766 435.716 13.3276C433.494 12.2503 431.178 11.3801 428.796 10.7282C428.737 10.7136 428.686 10.699 428.627 10.6845C427.896 10.4879 427.151 10.3059 426.406 10.153C424.867 9.82796 423.31 9.59215 421.744 9.44672C421.633 9.43943 421.523 9.43213 421.419 9.43213C420.794 9.43359 420.18 9.60201 419.641 9.92C419.634 9.92 419.634 9.92725 419.627 9.92725C419.242 10.1522 418.906 10.4517 418.638 10.8082C418.167 11.4082 417.912 12.1497 417.915 12.9125H410.538C410.265 12.9125 409.992 12.9198 409.719 12.9343C404.796 13.1026 400.113 15.102 396.586 18.5414C393.059 21.9808 390.942 26.6126 390.65 31.5303C390.628 31.8798 390.621 32.222 390.621 32.5715Z" fill="#2F2E41"/>
<path d="M434.117 26.212C441.355 26.212 447.223 20.3442 447.223 13.106C447.223 5.86775 441.355 0 434.117 0C426.878 0 421.011 5.86775 421.011 13.106C421.011 20.3442 426.878 26.212 434.117 26.212Z" fill="#2F2E41"/>
<path d="M477.739 252.459C478.379 251.45 478.792 250.315 478.95 249.131C479.107 247.947 479.006 246.743 478.652 245.602C478.299 244.461 477.702 243.411 476.902 242.524C476.103 241.636 475.121 240.933 474.023 240.463L474.088 199.361L462.723 196.548L463.003 245.366C462.349 247.272 462.417 249.353 463.194 251.213C463.972 253.073 465.404 254.583 467.221 255.458C469.037 256.332 471.111 256.51 473.05 255.957C474.989 255.404 476.657 254.16 477.739 252.459V252.459Z" fill="#A0616A"/>
<path d="M421.463 101.477L439.148 89.4589C439.973 88.8982 440.906 88.5162 441.887 88.3375C442.869 88.1587 443.876 88.1872 444.846 88.421C445.816 88.6548 446.726 89.0888 447.518 89.6951C448.31 90.3014 448.967 91.0667 449.446 91.9417L479.849 147.5L479.966 228.811L460.984 227.621L453.191 160.492L421.463 101.477Z" fill="#43657D"/>
</g>
<defs>
<clipPath id="clip0_402_2">
<rect width="493.461" height="480.848" fill="white"/>
</clipPath>
</defs>
</svg>
